<svg id="Layer_1" data-name="Layer 1" xmlns="http://www.w3.org/2000/svg" width="380.541" height="110.915" viewBox="0 0 380.541 110.915"><defs><style>.cls-1{fill:#2c4176;}</style></defs><path class="cls-1" d="M19.3276,32.6133H3.624a2.0849,2.0849,0,0,1-2.0864-2.0864v-11.97A2.0849,2.0849,0,0,1,3.624,16.47H52.3828a2.0849,2.0849,0,0,1,2.0864,2.0864v11.97a2.0849,2.0849,0,0,1-2.0864,2.0864H36.6792V91.2559a2.16,2.16,0,0,1-2.0869,2.0864H21.4146a2.16,2.16,0,0,1-2.087-2.0864Z" transform="translate(-1.5376 -16.4702)"/><path class="cls-1" d="M52.8223,52.1606a1.983,1.983,0,0,1,1.9765-2.7451H65.2314a2.2952,2.2952,0,0,1,1.9771,1.3174l5.71,15.0454h.11L83.4614,49.1958a2.0585,2.0585,0,0,1,1.7569-.8789h1.0981a1.9,1.9,0,0,1,1.6475.8789L98.5063,65.7783h.11l5.6006-15.0454a1.99,1.99,0,0,1,2.1963-1.3174h10.2134a1.983,1.983,0,0,1,1.9765,2.7451l-14.6059,40.962a2.1686,2.1686,0,0,1-1.9766,1.3178h-.4394a2.48,2.48,0,0,1-1.7569-.8784L85.6577,71.5986h-.11L71.6011,93.562a2.7128,2.7128,0,0,1-1.7569.8784h-.5493c-.6587,0-1.7573-.5488-1.8667-1.3178Z" transform="translate(-1.5376 -16.4702)"/><path class="cls-1" d="M124.9692,27.4517a8.7177,8.7177,0,0,1,8.6758-8.7852,8.8111,8.8111,0,0,1,8.7857,8.7852,8.718,8.718,0,0,1-8.7857,8.6757A8.6244,8.6244,0,0,1,124.9692,27.4517Zm.6592,24.05a2.085,2.085,0,0,1,2.0864-2.0865h12.08a2.0849,2.0849,0,0,1,2.0864,2.0865V91.2559a2.16,2.16,0,0,1-2.0864,2.0864h-12.08a2.16,2.16,0,0,1-2.0864-2.0864Z" transform="translate(-1.5376 -16.4702)"/><path class="cls-1" d="M153.7412,18.5566a2.16,2.16,0,0,1,2.0864-2.0864h12.08a2.16,2.16,0,0,1,2.0864,2.0864V91.2559a2.16,2.16,0,0,1-2.0864,2.0864h-12.08a2.16,2.16,0,0,1-2.0864-2.0864Z" transform="translate(-1.5376 -16.4702)"/><path class="cls-1" d="M181.1948,27.4517a8.7173,8.7173,0,0,1,8.6753-8.7852,8.8112,8.8112,0,0,1,8.7857,8.7852,8.7181,8.7181,0,0,1-8.7857,8.6757A8.624,8.624,0,0,1,181.1948,27.4517Zm.6587,24.05a2.085,2.085,0,0,1,2.0864-2.0865h12.08a2.0849,2.0849,0,0,1,2.0864,2.0865V91.2559a2.16,2.16,0,0,1-2.0864,2.0864H183.94a2.16,2.16,0,0,1-2.0864-2.0864Z" transform="translate(-1.5376 -16.4702)"/><path class="cls-1" d="M214.0288,77.3091s-3.1846-3.2949-3.1846-9.9937a19.3625,19.3625,0,0,1,19.3282-18.9985h20.7553a2.02,2.02,0,0,1,2.0865,2.0869v4.5025a2.2289,2.2289,0,0,1-1.208,1.8666l-6.3692,2.3062s4.1729,3.4043,4.1729,10.6523c0,8.0166-7.3579,16.5826-18.9986,16.5826h-7.9067c-2.3062,0-3.624,1.208-3.624,2.9648,0,2.0869,1.8672,2.9653,3.5141,2.9653h13.1782c10.3228,0,18.8887,6.26,18.8887,16.0337,0,10.542-7.3579,19.1075-24.709,19.1075-17.0219,0-22.9521-8.0166-22.9521-14.9346,0-6.5894,5.4912-9.8838,6.6992-10.5425v-.33a12.6692,12.6692,0,0,1-8.456-12.19C205.2437,80.7134,214.0288,77.3091,214.0288,77.3091Zm15.9238,37.2275c5.4908,0,7.9068-2.1963,7.9068-5.1611,0-2.3057-1.9766-4.6123-7.9068-4.6123-3.9536,0-7.9067,1.4277-7.9067,4.6123C222.0459,112.4507,224.6812,114.5366,229.9526,114.5366Zm.6587-40.5224a5.7115,5.7115,0,1,0,0-11.4209,5.7115,5.7115,0,1,0,0,11.4209Z" transform="translate(-1.5376 -16.4702)"/><path class="cls-1" d="M261.0293,18.5566a2.16,2.16,0,0,1,2.0864-2.0864h12.19a2.16,2.16,0,0,1,2.0864,2.0864V50.8428a23.3576,23.3576,0,0,1,10.2129-2.5259c13.8369,0,20.9751,10.8721,20.9751,23.062v19.877a2.16,2.16,0,0,1-2.0864,2.0864H294.853a2.0849,2.0849,0,0,1-2.0864-2.0864V71.1592c0-4.8321-3.1846-8.6758-8.0166-8.6758-3.5142,0-7.3579,1.977-7.3579,8.6758V91.2559c0,1.4277-.5493,2.0864-2.416,2.0864h-11.86a2.16,2.16,0,0,1-2.0864-2.0864Z" transform="translate(-1.5376 -16.4702)"/><path class="cls-1" d="M320.66,63.3623h-2.855a2.0649,2.0649,0,0,1-1.9766-2.0869V51.502a1.9953,1.9953,0,0,1,1.9766-2.0865h2.855v-12.19a2.16,2.16,0,0,1,2.0869-2.0864h11.75a2.0644,2.0644,0,0,1,1.9765,2.0864v12.19h8.1265a2.0191,2.0191,0,0,1,2.0864,2.0865v9.7734a2.0854,2.0854,0,0,1-2.0864,2.0869h-8.1265V77.0894c0,2.416,1.6475,2.6357,2.9649,2.6357a21.4355,21.4355,0,0,0,4.2832-.769,1.9237,1.9237,0,0,1,2.416,1.4277l2.416,9.1147a2.183,2.183,0,0,1-1.4277,2.5259S339.33,94.44,333.8384,94.44c-8.3462,0-13.1782-5.271-13.1782-15.2646Z" transform="translate(-1.5376 -16.4702)"/><path class="cls-1" d="M261.2783,103.248a.5368.5368,0,0,1,.5142-.5424h6.9658a9.9922,9.9922,0,1,1,0,19.9843h-6.9658a.5367.5367,0,0,1-.5142-.542Zm7.1944,15.2164a5.7854,5.7854,0,0,0,0-11.5625h-2.7408v11.5625Z" transform="translate(-1.5376 -16.4702)"/><path class="cls-1" d="M282.2637,103.248a.5421.5421,0,0,1,.5425-.5424h8.5361a6.1008,6.1008,0,0,1,1.9985,11.9052l3.9112,7.251a.54.54,0,0,1-.4854.8281H292.97a.5246.5246,0,0,1-.4565-.2568l-3.7974-7.5654h-1.97v7.28a.5613.5613,0,0,1-.5425.542h-3.3974a.542.542,0,0,1-.5425-.542Zm8.7075,7.9937a2.2892,2.2892,0,0,0,2.17-2.2842,2.1872,2.1872,0,0,0-2.17-2.17h-4.2251v4.4541Z" transform="translate(-1.5376 -16.4702)"/><path class="cls-1" d="M301.3936,103.248a.5617.5617,0,0,1,.5424-.5424h3.4258a.5613.5613,0,0,1,.5425.5424v18.9a.5613.5613,0,0,1-.5425.542H301.936a.5616.5616,0,0,1-.5424-.542Z" transform="translate(-1.5376 -16.4702)"/><path class="cls-1" d="M308.2456,103.4478a.504.504,0,0,1,.4854-.7422h3.7968a.56.56,0,0,1,.4854.3139l4.7109,10.42h.1714l4.71-10.42a.56.56,0,0,1,.4853-.3139h3.7969a.504.504,0,0,1,.4853.7422l-8.9643,19.2138a.5442.5442,0,0,1-.4854.3135h-.2856a.5454.5454,0,0,1-.4854-.3135Z" transform="translate(-1.5376 -16.4702)"/><path class="cls-1" d="M329.7163,103.248a.5421.5421,0,0,1,.5425-.5424h11.8193a.5421.5421,0,0,1,.5425.5424V106.36a.542.542,0,0,1-.5425.542H334.17v3.54h6.5093a.5622.5622,0,0,1,.5425.543v3.1113a.5423.5423,0,0,1-.5425.543H334.17v3.8545h7.9082a.5419.5419,0,0,1,.5425.5419v3.1123a.542.542,0,0,1-.5425.542H330.2588a.542.542,0,0,1-.5425-.542Z" transform="translate(-1.5376 -16.4702)"/><path class="cls-1" d="M344.6494,117.0942v-2.5976a.5248.5248,0,0,1,.542-.543H351.73a.5252.5252,0,0,1,.5425.543v2.5976a.5189.5189,0,0,1-.5425.5137h-6.5381A.5184.5184,0,0,1,344.6494,117.0942Z" transform="translate(-1.5376 -16.4702)"/><path class="cls-1" d="M355.4985,103.248a.5618.5618,0,0,1,.5425-.5424h3.4258a.5614.5614,0,0,1,.5425.5424v18.9a.5613.5613,0,0,1-.5425.542H356.041a.5617.5617,0,0,1-.5425-.542Z" transform="translate(-1.5376 -16.4702)"/><path class="cls-1" d="M364.8921,102.9341a.5368.5368,0,0,1,.5425-.5142h.7133L377.54,113.3833h.0283V103.248a.5421.5421,0,0,1,.5425-.5424h3.4257a.5613.5613,0,0,1,.5425.5424v19.2134a.5367.5367,0,0,1-.5425.5137H381.08a.8316.8316,0,0,1-.3711-.1426l-11.2773-11.334h-.0284v10.6494a.5419.5419,0,0,1-.5424.542h-3.3975a.5616.5616,0,0,1-.5425-.542Z" transform="translate(-1.5376 -16.4702)"/></svg>